<svg id="visual" viewBox="0 0 1920 1080" width="1920" height="1080" xmlns="http://www.w3.org/2000/svg" xmlns:xlink="http://www.w3.org/1999/xlink" version="1.1"><rect x="0" y="0" width="1920" height="1080" fill="#272727"></rect><path d="M0 754L32 757.8C64 761.7 128 769.3 192 776.2C256 783 320 789 384 770.2C448 751.3 512 707.7 576 692C640 676.3 704 688.7 768 701.3C832 714 896 727 960 746.2C1024 765.3 1088 790.7 1152 793.7C1216 796.7 1280 777.3 1344 777.3C1408 777.3 1472 796.7 1536 783.8C1600 771 1664 726 1728 724.7C1792 723.3 1856 765.7 1888 786.8L1920 808L1920 1081L1888 1081C1856 1081 1792 1081 1728 1081C1664 1081 1600 1081 1536 1081C1472 1081 1408 1081 1344 1081C1280 1081 1216 1081 1152 1081C1088 1081 1024 1081 960 1081C896 1081 832 1081 768 1081C704 1081 640 1081 576 1081C512 1081 448 1081 384 1081C320 1081 256 1081 192 1081C128 1081 64 1081 32 1081L0 1081Z" fill="#fa7268"></path><path d="M0 788L32 803.8C64 819.7 128 851.3 192 873.5C256 895.7 320 908.3 384 915.7C448 923 512 925 576 918.2C640 911.3 704 895.7 768 885.8C832 876 896 872 960 871C1024 870 1088 872 1152 857.3C1216 842.7 1280 811.3 1344 807.8C1408 804.3 1472 828.7 1536 826.5C1600 824.3 1664 795.7 1728 787C1792 778.3 1856 789.7 1888 795.3L1920 801L1920 1081L1888 1081C1856 1081 1792 1081 1728 1081C1664 1081 1600 1081 1536 1081C1472 1081 1408 1081 1344 1081C1280 1081 1216 1081 1152 1081C1088 1081 1024 1081 960 1081C896 1081 832 1081 768 1081C704 1081 640 1081 576 1081C512 1081 448 1081 384 1081C320 1081 256 1081 192 1081C128 1081 64 1081 32 1081L0 1081Z" fill="#e34c67"></path><path d="M0 970L32 958C64 946 128 922 192 920.8C256 919.7 320 941.3 384 945.3C448 949.3 512 935.7 576 928.5C640 921.3 704 920.7 768 934C832 947.3 896 974.7 960 977.5C1024 980.3 1088 958.7 1152 951.2C1216 943.7 1280 950.3 1344 961.5C1408 972.7 1472 988.3 1536 988.2C1600 988 1664 972 1728 970C1792 968 1856 980 1888 986L1920 992L1920 1081L1888 1081C1856 1081 1792 1081 1728 1081C1664 1081 1600 1081 1536 1081C1472 1081 1408 1081 1344 1081C1280 1081 1216 1081 1152 1081C1088 1081 1024 1081 960 1081C896 1081 832 1081 768 1081C704 1081 640 1081 576 1081C512 1081 448 1081 384 1081C320 1081 256 1081 192 1081C128 1081 64 1081 32 1081L0 1081Z" fill="#c62368"></path></svg>