<svg width="324" height="115" viewBox="0 0 324 115" fill="none" xmlns="http://www.w3.org/2000/svg">
<path d="M0.5 76.5798H21.8414C26.4267 76.5798 30.6389 74.0532 32.7976 70.0078L42.6553 51.535C47.5975 42.2737 61.0881 42.9413 65.0916 52.6454L76.8857 81.2334C81.3079 91.9524 96.7049 91.3005 100.205 80.246L122.336 10.3497C125.965 -1.11072 142.135 -1.24375 145.952 10.1554L164.018 64.1135C166.908 72.7423 178.742 73.6737 182.945 65.6032V65.6032C186.955 57.9051 198.1 58.3005 201.554 66.2633L219.432 107.48C220.829 110.701 224.004 112.784 227.515 112.784V112.784C231.302 112.784 234.666 110.363 235.869 106.772L248.98 67.6128C252.237 57.8862 265.729 57.1922 269.966 66.5333V66.5333C273.813 75.0135 285.694 75.4522 290.156 67.2789L290.69 66.3011C294.473 59.3713 303.849 58.0121 309.444 63.5823L322.5 76.5798" stroke="url(#paint0_linear_11_2274)" stroke-width="2.48372" stroke-linejoin="round" stroke-dasharray="3.31 3.31"/>
<defs>
<linearGradient id="paint0_linear_11_2274" x1="0.5" y1="112.784" x2="322.5" y2="112.784" gradientUnits="userSpaceOnUse">
<stop stop-color="#7DFB5D" stop-opacity="0"/>
<stop offset="0.0729167" stop-color="#7DFB5D"/>
<stop offset="0.515625" stop-color="#7DFB5D"/>
<stop offset="0.916667" stop-color="#7DFB5D"/>
<stop offset="1" stop-color="#7DFB5D" stop-opacity="0"/>
</linearGradient>
</defs>
</svg>
