<svg width="324" height="254" viewBox="0 0 324 254" fill="none" xmlns="http://www.w3.org/2000/svg">
<path d="M0.549568 142.156L0.880898 129.75L1.48331 121.227L1.93511 116.52L2.43511 112.09L3.03752 108.003L3.49535 104.181L4.09776 100.533L4.24234 99.7565C4.25568 99.7075 4.27177 99.6593 4.29053 99.6121L4.74836 98.7031C4.78866 98.6233 4.84628 98.5533 4.91703 98.4985L6.12185 97.5896C6.18874 97.5375 6.2673 97.5024 6.35077 97.4873L7.09776 97.3368L10.1098 96.5784L12.7182 95.9764L15.1941 95.4889L17.917 95.0374L20.3809 94.592L22.7905 94.291H23.3206C23.4667 94.2896 23.6074 94.3459 23.7122 94.4475C23.7302 94.4501 23.7484 94.4501 23.7664 94.4475L23.8507 94.4776C23.8897 94.4947 23.9262 94.517 23.9592 94.5439H24.0074L25.7001 96.0908C26.3354 96.9067 26.7111 97.8943 26.7785 98.9259V119.355L41.5917 119.5H43.5616C43.6501 119.5 43.7371 119.523 43.8146 119.566L48.5314 120.421H48.6278L51.0977 121.372L53.3808 122.431L53.4712 122.485L54.3085 123.087L55.4471 123.226L55.6158 122.112C55.6116 122.076 55.6116 122.04 55.6158 122.004L56.2182 120.33L56.2724 120.222L57.0314 119.018L58.0374 117.712L59.423 116.171L60.9471 114.654L60.9953 114.612L64.182 112.036L64.2543 111.982L66.0615 110.91L67.7543 109.989L69.6097 109.062L71.4892 108.286L73.4952 107.684L75.3687 107.214L79.3627 106.612L81.2302 106.462H82.2181L86.2181 106.775L88.0916 107.088L89.8988 107.545L91.6217 108.015L94.9651 109.219C94.9933 109.226 95.0198 109.238 95.0434 109.255L96.5856 110.092C96.7394 110.095 96.886 110.158 96.9952 110.266C97.1051 110.286 97.2073 110.336 97.2904 110.411L97.435 110.537L98.5795 111.253C98.6066 111.264 98.6312 111.281 98.6518 111.301L100.513 112.854L102.224 114.564L103.007 115.509L103.742 116.538L104.531 117.459L105.32 118.573L106.381 120.378C106.396 120.405 106.409 120.433 106.417 120.463L106.706 121.173L107.308 122.377L108.061 123.743C108.086 123.787 108.104 123.833 108.116 123.882L108.254 124.429L108.682 125.284V125.356L109.001 126.223L109.453 127.289C109.456 127.311 109.456 127.333 109.453 127.355L110.055 129.48C110.061 129.509 110.061 129.54 110.055 129.57L110.266 130.738L110.561 131.761V131.839L110.712 132.898C110.712 132.898 110.712 132.953 110.712 132.983V134.012L110.869 135.029C110.872 135.055 110.872 135.082 110.869 135.108V136.016C110.872 136.044 110.872 136.073 110.869 136.101L110.724 137.124V137.539C110.723 137.627 110.702 137.713 110.664 137.792L110.574 137.979C110.573 138.063 110.552 138.145 110.513 138.219L110.11 140.627C110.113 140.655 110.113 140.683 110.11 140.711L109.507 142.553L108.905 144.245L108.134 146.087L107.32 147.796C107.308 147.831 107.29 147.864 107.266 147.892L106.224 149.385L105.327 151.028L105.272 151.107L104.031 152.672L102.646 154.213L101.104 155.754L99.5374 157.156L96.194 159.564L96.1097 159.612L92.429 161.418L90.5615 162.194L88.688 162.796L86.7241 163.253L84.8446 163.717L82.8266 164.024L80.8085 164.18H79.6037C79.5557 164.186 79.5071 164.186 79.4591 164.18C79.4053 164.19 79.3502 164.19 79.2964 164.18H79.188L77.6278 163.867L75.9591 163.41C75.9107 163.398 75.8641 163.38 75.8205 163.356L74.0133 162.29L73.9591 162.254L72.1097 160.87L72.0073 160.786L70.6157 161.544L69.9651 161.875C69.6005 162.048 69.25 162.249 68.9169 162.477L68.3145 165.866L67.7121 168.141C67.7065 168.175 67.6942 168.208 67.676 168.237L66.7663 170.212C66.7539 170.242 66.7377 170.27 66.7181 170.296L65.6519 171.819C65.6412 171.838 65.6268 171.854 65.6097 171.867L64.4049 173.233C64.3736 173.277 64.3323 173.312 64.2844 173.336L62.8808 174.233V195.408C62.8808 195.408 62.8808 195.444 62.8808 195.456C62.8954 195.532 62.8954 195.61 62.8808 195.685L62.5736 197.07L62.2724 198.273C62.261 198.312 62.2469 198.351 62.2302 198.388L61.7483 199.339L61.2965 200.097C61.2839 200.118 61.2698 200.138 61.2543 200.157L60.6519 200.922C60.6364 200.934 60.6222 200.949 60.6097 200.964L59.4712 202.029C59.435 202.064 59.3945 202.095 59.3507 202.12L58.2844 202.722H58.2302L57.1639 203.179H57.0796L55.8748 203.48H55.7965L54.429 203.631H53.1519C53.1059 203.637 53.0593 203.637 53.0134 203.631L51.8085 203.33H51.7242L50.6579 202.872H50.5977L49.5375 202.27C49.5154 202.262 49.495 202.25 49.4772 202.234L48.2724 201.325C48.2353 201.294 48.2011 201.26 48.17 201.223L47.5676 200.464C47.5501 200.445 47.5358 200.422 47.5254 200.398L47.0796 199.664L46.4772 198.755C46.4472 198.712 46.4229 198.666 46.4049 198.617L46.2724 198.219L45.8868 197.575L45.2844 196.973L44.4411 196.733H43.6097C43.531 196.732 43.4533 196.715 43.3808 196.684C43.3088 196.716 43.2308 196.733 43.1519 196.733H42.5857L41.8628 196.835C41.7903 196.866 41.7126 196.882 41.6338 196.883H27.4351C27.436 197.494 27.3008 198.098 27.0393 198.651C26.7778 199.204 26.3965 199.692 25.923 200.079L25.7724 200.212L23.9652 201.71C23.8576 201.817 23.7295 201.9 23.5886 201.955C23.4477 202.009 23.297 202.035 23.1459 202.029H22.8929L17.8507 201.428L15.2242 200.964L12.8146 200.362L10.2243 199.76L7.2122 199.002L6.46523 198.857H6.36282L5.60378 198.55C5.50673 198.513 5.42286 198.448 5.36282 198.364L4.87487 197.708L4.41703 196.949C4.38053 196.888 4.356 196.821 4.34475 196.751L4.18813 195.836L3.58572 192.164L3.12788 188.384L2.52547 184.261L2.06764 179.999L1.60981 175.129L1.30861 171.175L1.00138 166.751L0.549568 151.251V149.692C0.546577 149.656 0.546577 149.62 0.549568 149.584C0.459206 147.315 0.513428 144.197 0.549568 142.156ZM50.6278 122.425L48.2182 121.534L43.7001 120.709V131.544L43.7784 131.105L44.3808 128.793L45.3808 126.789L46.4652 125.248L47.3808 124.333H47.417L48.4832 123.731H48.5314L49.7724 123.424L51.0314 123.268L52.5917 123.43L52.8808 123.526H52.8447L50.6278 122.425ZM95.682 112.192L94.5555 112.469L93.7 113.324L93.2603 113.926L92.9711 114.528L92.6699 116.291V118.362L92.8205 119.566L93.1217 120.77L93.7241 123.478L94.1759 124.682L94.7783 126.067L95.2181 127.403L95.9892 128.787L96.5916 130.13L97.3386 131.333L98.2542 132.537L99.0073 133.585L100.67 135.553L101.598 136.48L102.345 137.082L103.248 137.684L104.742 138.581L105.447 138.713H106.754L107.357 138.575L107.857 138.165L108.146 137.726L108.586 137.124L108.875 136.522L109.17 134.758V132.7L108.869 130.292L108.567 128.944L107.296 125.14L107.176 124.887C107.157 124.851 107.142 124.812 107.134 124.772V124.652L106.652 123.653L105.869 122.274L105.266 120.932L103.76 118.525L102.839 117.447L102.104 116.406L100.296 114.6L99.5494 113.998L98.6458 113.396L97.1579 112.505L95.682 112.192ZM109.73 135.15L109.58 134.126C109.58 134.126 109.58 134.072 109.58 134.042V133.019V134.825L109.278 136.63V136.679L108.953 137.317L108.507 137.919L108.2 138.37C108.189 138.389 108.175 138.405 108.158 138.418L107.555 138.876C107.533 138.889 107.509 138.899 107.483 138.906L106.833 139.062H105.399L104.634 138.912H104.574L103.037 137.997L102.11 137.395L101.333 136.793L100.423 135.818L98.7422 133.831L97.9832 132.808L97.0615 131.604L96.2904 130.364L95.688 129.016L94.9169 127.614L94.4651 126.265L93.8627 124.887L93.3988 123.605L92.7964 120.878L92.4892 119.638L92.3326 118.398V116.243L92.6338 114.437V114.383L92.9591 113.745L93.4289 113.143L94.3446 112.228C94.3676 112.205 94.3968 112.188 94.4289 112.18L95.6338 111.879C95.6338 111.879 95.6639 111.879 95.6759 111.879H95.7181L97.2362 112.186C97.2559 112.181 97.2767 112.181 97.2964 112.186L98.8205 113.077L99.7301 113.679L97.9229 112.186L97.2121 111.741L96.7542 111.434C96.7296 111.419 96.7073 111.401 96.688 111.38H96.6157C96.5276 111.378 96.4412 111.355 96.3636 111.313C96.2861 111.271 96.2197 111.212 96.1699 111.139L94.5555 110.26L94.2181 110.14L93.7302 110.086L92.8868 110.218L92.1639 110.513L91.447 111.223L91.0012 111.825L90.5675 112.553L90.3868 113.589L90.0856 114.63V117.158L90.2663 118.663L90.9892 121.974L92.194 125.91L92.947 127.716L95.0735 131.658L95.9771 133.169L96.8808 134.524L97.947 135.89L98.8506 137.094L99.8988 138.298L102.007 140.103L102.893 140.705L105.302 141.759L106.314 141.903L107.007 141.765L107.766 141.476L108.459 141.042L108.881 140.338L109.061 140.079L109.453 137.75C109.455 137.707 109.461 137.665 109.471 137.624C109.471 137.624 109.471 137.581 109.471 137.563L109.561 137.377V137.082C109.561 137.082 109.561 137.028 109.561 137.004L109.712 135.98L109.73 135.15ZM74.5856 161.363L76.3145 162.375L77.8808 162.802L79.3988 163.103H79.441C79.489 163.084 79.54 163.074 79.5916 163.073H80.7482L82.682 162.922L84.6097 162.634L86.4169 162.176L88.3446 161.731L90.1518 161.129L91.9591 160.382L95.5735 158.577L98.8205 156.283L100.321 154.935L101.833 153.412L103.176 151.913L104.381 150.439L105.236 148.807L105.272 148.753L106.302 147.254L107.037 145.671L107.784 143.866L108.387 142.204L108.67 141.368L107.935 141.837L107.146 142.15L106.381 142.307H106.32L105.254 142.156H105.206L102.742 141.073L101.814 140.471L99.6639 138.629L98.5916 137.425L97.682 136.221L96.6097 134.843L95.694 133.41L94.7783 131.887L92.6398 127.921L91.8747 126.079L90.6699 122.118L89.9049 118.753L89.7362 117.158V114.6C89.7328 114.584 89.7328 114.568 89.7362 114.552L90.0314 113.51L90.182 112.445C90.1786 112.423 90.1786 112.401 90.182 112.379L90.6518 111.602L91.1277 110.97L91.8868 110.212L91.947 110.17L92.7964 109.857L93.1699 109.797L92.9289 109.664L91.3085 109.062L89.6518 108.611L87.8446 108.165L86.0735 107.864L82.1398 107.563H81.2964L79.4892 107.708L75.5856 108.31L73.7784 108.761L71.8567 109.363L70.0495 110.104L68.2422 111.006L66.5856 111.909L64.7784 112.951L61.6398 115.491L60.2663 116.96L58.929 118.434L58.0314 119.638L57.3025 120.77L56.7362 122.335L56.5314 123.623C56.5816 123.717 56.6026 123.824 56.5917 123.93C56.5768 124.048 56.5239 124.158 56.4411 124.243L56.2965 126.446L56.435 128.781L56.8868 131.49L57.4892 134.331L58.3929 137.341L59.4471 140.35L60.6519 143.203L62.17 146.213L63.67 149.066L65.3145 151.757L67.1218 154.164L69.0856 156.428L70.8928 158.378L72.8205 160.009L74.5856 161.363ZM69.429 160.9C69.6338 160.792 69.8507 160.689 70.0314 160.581L71.0314 160.039L70.0916 159.239L70.0374 159.19L68.2302 157.204L66.2302 154.893L64.3748 152.419L62.676 149.662L61.4712 147.375C64.0796 157.963 66.2904 164.229 67.4169 164.373L67.7904 162.212C67.8687 161.701 68.4892 161.369 69.429 160.9ZM64.7001 171.211L65.688 169.76L66.5555 167.876L67.1579 165.673L67.3386 164.71C65.8808 164.475 63.6579 158.143 60.7121 145.882L59.5977 143.661L58.3929 140.742L57.3206 137.678L56.3808 134.614L55.7784 131.701L55.3206 128.908L55.1639 126.5V126.428L55.2965 124.381L54.4832 124.285C54.4411 124.288 54.3988 124.288 54.3567 124.285H54.2001C54.0908 124.281 53.9846 124.248 53.8929 124.189L53.3748 124.128C53.2967 124.119 53.2215 124.093 53.154 124.053C53.0865 124.012 53.0283 123.958 52.9832 123.894C52.9653 123.897 52.947 123.897 52.929 123.894L52.5133 123.755L51.0314 123.599L49.8266 123.749L48.6218 124.044L47.5977 124.646L46.7302 125.513L45.682 127.006L44.7784 128.944L44.176 131.213L43.7182 133.621L43.5676 134.367L43.417 135.402V136.642L43.2664 137.846L43.1158 138.882V144.245L43.2664 148.458L43.7182 152.858L44.176 156.042L44.7784 159.209L45.6881 162.218L46.7423 165.228L47.6459 167.184L48.6941 168.99L49.8989 170.501L51.1037 171.849L52.6218 173.053L53.9712 174.1L55.176 174.552L56.0977 175.015L56.8507 175.467L56.929 175.503C56.929 175.503 56.929 175.503 56.9772 175.503L61.6459 173.992C61.65 173.9 61.675 173.811 61.7188 173.731C61.7626 173.651 61.8242 173.581 61.8989 173.528L63.5073 172.511L64.7001 171.211ZM44.0013 194.084C44.0013 194.084 44.0013 194.084 44.0013 194.054L44.7604 193.296L45.3628 192.694L45.4109 192.657L46.3085 192.212L48.2182 191.135L50.3266 190.232L51.4109 189.63L52.435 189.166L54.0856 188.263L54.8567 187.662L55.5796 187.234L57.3868 185.428L57.5254 185.158C57.5316 185.136 57.5442 185.117 57.5615 185.103L57.682 184.983L57.8085 184.604V184.176L57.9591 183.135V176.616H57.8567C57.8064 176.614 57.7588 176.593 57.7242 176.556L57.2543 176.147L56.6519 175.852L55.9049 175.4L55.0133 174.955L53.8085 174.497H53.7784L52.435 173.384L50.8929 172.144L49.6881 170.772L48.4832 169.231L47.4049 167.389L46.4893 165.396L45.423 162.351L44.5073 159.293L43.9049 156.097L43.8326 155.555V194.608L44.0013 194.084ZM57.9049 175.599H57.9411V175.551L57.9049 175.599ZM57.9651 176.165L57.8868 176.008H57.8567C57.8064 176.006 57.7588 175.985 57.7242 175.948L57.6278 175.852H57.5555L57.935 176.231H57.9712L57.9651 176.165ZM59.2603 175.208V187.692L60.3989 188.576C60.4179 188.589 60.4342 188.606 60.4471 188.625L61.5254 190.328L61.688 190.725V174.377L59.2423 175.172C59.2423 175.172 59.2603 175.196 59.2603 175.208ZM48.0013 199.068L48.4411 199.796L48.9772 200.464L50.1097 201.313L51.1158 201.885L52.1037 202.312L53.2121 202.589H54.3206L55.6218 202.445L56.7543 202.162L57.7483 201.734L58.7182 201.181L59.7061 200.224L60.2663 199.489L60.682 198.803L61.1097 197.948L61.3929 196.805L61.6941 195.456C61.6941 195.456 61.6941 195.426 61.6941 195.408V191.706L61.1941 190.503L60.1459 188.859L59.0254 187.987H58.9832L58.7664 188.408L58.1639 189.172L57.2362 190.256L55.8688 191.46L54.7784 192.23L53.8688 192.688L51.917 193.289L50.2483 194.042L48.7543 194.788L47.7001 195.541L47.0977 196.113L46.9772 196.347V197.214L47.2784 197.714C47.2794 197.734 47.2794 197.754 47.2784 197.774C47.2784 197.774 47.2784 197.804 47.2784 197.822L47.4049 198.207L48.0013 199.068ZM44.4712 195.601C44.523 195.592 44.576 195.592 44.6278 195.601L45.6941 195.902C45.7868 195.929 45.8716 195.979 45.9411 196.046L46.5435 196.648V196.275C46.5374 196.247 46.5374 196.219 46.5435 196.191L46.6941 195.884C46.6941 195.884 46.6941 195.884 46.6941 195.854L47.2965 195.252L48.3868 194.475L50.0254 193.717L51.7182 192.952L53.682 192.351L54.5555 191.917L55.6097 191.159L56.9531 189.955L57.8567 188.914L58.4591 188.185L58.7664 187.583H58.8025C58.8204 187.58 58.8388 187.58 58.8567 187.583V175.286L58.3025 175.467C58.3025 175.467 58.3025 175.467 58.3025 175.515V183.562C58.3022 183.592 58.2943 183.62 58.2795 183.646C58.2647 183.671 58.2436 183.692 58.2182 183.707L58.1519 184.182V184.628C58.1542 184.648 58.1542 184.668 58.1519 184.688L58.0013 185.139C57.9944 185.159 57.9818 185.176 57.9651 185.188L57.8386 185.314L57.7001 185.591L57.6639 185.639L55.8025 187.493L55.0615 187.932L54.3025 188.534L52.6278 189.449L51.5856 189.895L50.5013 190.497L48.3929 191.393L47.3326 191.995L46.5616 192.459L45.676 192.898L45.0736 193.5L44.3387 194.235L44.0495 194.836L44.0134 194.885L43.7664 195.131V195.547L44.4712 195.601ZM42.4953 195.601H43.0977C43.1766 195.6 43.2546 195.617 43.3266 195.649H43.3688V195.119V152.888L42.917 148.458L42.7664 144.203V138.876L43.0676 136.624V135.384L43.2242 134.313L43.3989 133.567V120.643H41.5917L26.4351 120.493V128.119C26.3978 129.414 26.7055 130.696 27.3266 131.833L27.929 133.037L28.3387 133.795L28.8025 134.716L29.3025 135.818L29.6158 136.913L29.917 139.213V156.067C29.917 158.101 29.7845 159.72 29.1399 161.014L28.3748 162.543L28.1278 162.971C27.2905 164.415 26.423 165.914 26.423 168.069V195.715V195.781L26.5074 195.866C26.6013 195.79 26.7179 195.747 26.8387 195.745C26.8647 195.743 26.891 195.743 26.917 195.745H26.9893H41.3929L42.417 195.601H42.4953ZM24.9531 199.381L25.1278 199.218C25.5566 198.887 25.8756 198.434 26.0435 197.918V168.069C26.0435 165.812 26.9772 164.199 27.7965 162.778L28.0375 162.363L28.7965 160.846C29.3989 159.642 29.5375 158.053 29.5375 156.073V139.237L29.2423 136.986L28.9471 135.944L28.4953 134.891L28.0375 134.012L27.5797 133.248L26.9772 132.044C26.3265 130.853 26.0042 129.511 26.0435 128.155V120.415C25.919 120.346 25.8229 120.235 25.7724 120.102C25.7035 120.007 25.6656 119.893 25.664 119.777V98.956C25.5923 98.229 25.3351 97.5327 24.917 96.9335L23.8327 95.9463V96.2654L23.6881 96.8312V145.358C23.9726 145.113 24.3363 144.978 24.7122 144.979H26.3809C27.2724 144.979 27.1459 145.617 27.1459 146.183V150.144C27.1459 150.685 27.1459 151.51 26.2303 151.51H24.7242C24.5425 151.532 24.3582 151.517 24.1822 151.466C24.0063 151.416 23.8424 151.33 23.7001 151.215V200.434L24.9531 199.381ZM10.399 198.653L12.9893 199.255L15.399 199.856L17.9471 200.308L22.9772 200.91H23.0977L23.1399 200.868L23.3146 200.723V96.783L23.4652 96.2232V95.6213L23.417 95.5792C23.3048 95.5648 23.1997 95.5165 23.1158 95.4407H22.917L20.5556 95.7357L18.1098 96.1931L15.3869 96.6506L12.9773 97.096L10.399 97.6979L7.38691 98.4443V197.906L10.399 198.653ZM5.33873 196.426L5.70618 197.027L6.06763 197.503L6.6339 197.732L7.03751 197.81V98.4985L6.70618 98.5647L5.70016 99.3171L5.33873 100.039L5.2062 100.708L4.8327 102.935V193.392L5.2062 195.619L5.33873 196.426ZM2.01945 166.66L2.32668 171.06L2.62788 175.003L3.08571 179.855L3.53751 184.068L4.13992 188.185L4.44715 190.755V105.571L4.13992 108.153L3.53751 112.228L2.62788 121.329L2.02547 129.811L1.80257 137.034L2.36884 148.47C2.36884 148.47 1.96523 148.512 1.59174 148.53C1.59174 149.56 1.59174 150.493 1.59174 151.191L2.01945 166.66Z" fill="white"/>
<path d="M209.584 111.087C209.584 105.551 210.397 88.9771 210.397 80.9646C210.397 38.4349 271.873 37.6516 293.395 47.2799C311.982 55.5953 318.078 74.5585 320.598 89.0631C326.668 124.023 316.957 147.062 309.014 163.684C303.831 174.53 294.214 188.269 289.602 193.649C286.667 197.073 280.429 205.997 274.439 213.703C266.945 223.345 265.146 229.29 254.752 236.666C244.359 244.042 209.385 244.488 209.385 223.345V205.225" stroke="white" stroke-width="1.51045" stroke-miterlimit="10"/>
<path d="M284.711 180.443C298.896 159.41 309.376 142.097 309.376 110.189C309.376 100.218 309.982 78.1977 293.977 64.3761C276.904 49.644 225.536 51.899 224.943 82.5788C224.756 92.2539 223.41 106.535 224.243 111.848C225.077 117.161 234.699 129.454 234.699 129.454" stroke="white" stroke-width="0.755224" stroke-miterlimit="10"/>
<path d="M262.878 142.188C262.878 142.188 262.878 130.227 248.992 130.305C239.536 130.358 233.418 133.765 233.418 146.773C233.418 159.781 223.719 161.054 223.719 168.57V183.506C223.719 192.388 249.065 191.945 249.065 177.103C249.065 166.534 282.485 161.465 284.371 143.931C285.025 137.87 284.879 133.273 284.879 122.093C284.879 101.568 265.635 105.78 238.244 105.78" stroke="white" stroke-width="1.51045" stroke-miterlimit="10"/>
<path d="M290.429 72.6211C296.45 77.7259 303.146 95.3561 301.71 115.759" stroke="white" stroke-width="0.755224" stroke-miterlimit="10"/>
<g clip-path="url(#clip0_11_2261)">
<path d="M170.464 13.8986C190.8 24.8368 207.798 41.1003 219.647 60.9578C231.497 80.8154 237.754 103.524 237.754 126.665C237.754 149.806 231.497 172.514 219.647 192.372C207.798 212.229 190.8 228.493 170.464 239.431M177.458 252.545C200.159 240.335 219.134 222.18 232.361 200.013C245.589 177.846 252.575 152.497 252.575 126.665C252.575 100.832 245.589 75.4829 232.361 53.3161C219.134 31.1492 200.159 12.9945 177.458 0.784668M163.461 27.0121C181.431 36.6786 196.452 51.051 206.923 68.5992C217.394 86.1474 222.924 106.215 222.924 126.665C222.924 147.115 217.394 167.182 206.923 184.73C196.452 202.278 181.431 216.651 163.461 226.317M170.454 239.431C190.79 228.493 207.788 212.229 219.637 192.372C231.487 172.514 237.744 149.806 237.744 126.665C237.744 103.524 231.487 80.8154 219.637 60.9578C207.788 41.1003 190.79 24.8368 170.454 13.8986M156.448 40.126C172.053 48.5209 185.096 61.0021 194.189 76.241C203.282 91.4799 208.084 108.906 208.084 126.665C208.084 144.423 203.282 161.85 194.189 177.089C185.096 192.327 172.053 204.809 156.448 213.204M163.451 226.317C181.422 216.651 196.442 202.278 206.913 184.73C217.384 167.182 222.914 147.115 222.914 126.665C222.914 106.215 217.384 86.1474 206.913 68.5992C196.442 51.051 181.422 36.6786 163.451 27.0121M149.444 53.2594C162.674 60.3859 173.731 70.9749 181.439 83.9003C189.146 96.8258 193.216 111.604 193.216 126.665C193.216 141.725 189.146 156.503 181.439 169.429C173.731 182.354 162.674 192.943 149.444 200.07M156.438 213.204C172.043 204.809 185.086 192.327 194.179 177.089C203.272 161.85 208.074 144.423 208.074 126.665C208.074 108.906 203.272 91.4799 194.179 76.241C185.086 61.0021 172.043 48.5209 156.438 40.126M149.424 200.07C162.654 192.943 173.711 182.354 181.419 169.429C189.126 156.503 193.197 141.725 193.197 126.665C193.197 111.604 189.126 96.8258 181.419 83.9003C173.711 70.9749 162.654 60.3859 149.424 53.2594M142.441 66.3534C153.318 72.2042 162.409 80.9033 168.747 91.5246C175.085 102.146 178.432 114.292 178.432 126.67C178.432 139.047 175.085 151.193 168.747 161.815C162.409 172.436 153.318 181.135 142.441 186.986M135.427 79.4669C143.939 84.046 151.053 90.8539 156.013 99.166C160.972 107.478 163.592 116.983 163.592 126.669C163.592 136.356 160.972 145.861 156.013 154.173C151.053 162.485 143.939 169.293 135.427 173.872M142.421 186.986C153.298 181.135 162.389 172.436 168.727 161.815C175.065 151.193 178.412 139.047 178.412 126.67C178.412 114.292 175.065 102.146 168.727 91.5246C162.389 80.9033 153.298 72.2042 142.421 66.3534M135.408 173.872C143.919 169.293 151.034 162.485 155.993 154.173C160.953 145.861 163.572 136.356 163.572 126.669C163.572 116.983 160.953 107.478 155.993 99.166C151.034 90.8539 143.919 84.046 135.408 79.4669M128.424 92.5809C134.57 95.8883 139.708 100.805 143.289 106.808C146.87 112.81 148.761 119.675 148.761 126.67C148.761 133.665 146.87 140.529 143.289 146.532C139.708 152.534 134.57 157.451 128.424 160.758M121.42 105.685C125.207 107.719 128.371 110.745 130.578 114.44C132.784 118.136 133.949 122.362 133.949 126.67C133.949 130.977 132.784 135.203 130.578 138.899C128.371 142.594 125.207 145.62 121.42 147.655M128.404 160.758C134.551 157.451 139.688 152.534 143.269 146.532C146.85 140.529 148.741 133.665 148.741 126.67C148.741 119.675 146.85 112.81 143.269 106.808C139.688 100.805 134.551 95.8883 128.404 92.5809M121.391 147.655C125.177 145.62 128.342 142.594 130.548 138.899C132.754 135.203 133.92 130.977 133.92 126.67C133.92 122.362 132.754 118.136 130.548 114.44C128.342 110.745 125.177 107.719 121.391 105.685" stroke="url(#paint0_radial_11_2261)" stroke-width="0.755224" stroke-miterlimit="10"/>
</g>
<defs>
<radialGradient id="paint0_radial_11_2261" cx="0" cy="0" r="1" gradientUnits="userSpaceOnUse" gradientTransform="translate(115.052 126.503) scale(143.856 143.509)">
<stop stop-color="#7DFB5D"/>
<stop offset="1" stop-color="#7DFB5D" stop-opacity="0"/>
</radialGradient>
<clipPath id="clip0_11_2261">
<rect width="131.967" height="252.623" fill="white" transform="translate(120.402 0.784668)"/>
</clipPath>
</defs>
</svg>
